<svg width="185" height="101" viewBox="0 0 185 101" fill="none" xmlns="http://www.w3.org/2000/svg">
<path d="M87.9093 37.351C87.9093 36.6675 88.1705 34.8246 88.4831 31.9305C88.6929 30.2477 88.7957 28.9845 89.0569 28.3009C89.5794 26.8258 90.4616 26.0903 91.4551 26.0903C92.9668 26.0903 94.0588 27.8251 94.0588 30.9831C94.0588 36.5074 92.1831 40.297 90.3074 40.297C89.0569 40.297 87.9093 39.0382 87.9093 37.351ZM87.4425 38.9819C88.0163 40.349 89.1597 41.1925 90.4102 41.1925C93.2751 41.1925 96.0887 37.139 96.0887 31.6666C96.0887 27.6131 94.2644 25.1948 91.6093 25.1948C90.5686 25.1948 89.5237 25.8264 88.6929 27.1416V25.4587C88.6929 12.7748 90.3588 7.0947 90.3588 6.51502C90.3588 6.41119 90.2046 6.30304 90.0462 6.30304C88.6929 6.30304 86.7102 12.0394 86.7102 22.7204C86.7102 24.8271 86.813 27.1935 86.813 29.668C86.813 36.0359 85.6653 39.6654 85.6653 40.5609C85.6653 41.0368 85.9265 41.2444 86.3419 41.2444C87.0742 41.2444 87.1299 40.6128 87.4425 38.9819ZM77.6486 36.196C78.2225 30.0919 79.4172 26.9858 80.7748 26.9858C81.4514 26.9858 81.7126 27.4055 81.7126 28.3529C81.7126 30.0919 80.4065 33.3538 77.6486 36.196ZM77.6486 37.4029C81.3486 34.1411 83.1172 30.9831 83.1172 28.5648C83.1172 27.0377 82.3892 25.9346 81.1388 25.9346C78.4837 25.9346 75.4089 30.1957 75.4089 35.984C75.4089 39.6654 77.2332 41.7722 79.8883 41.7722C82.4406 41.7722 84.8388 39.7736 86.192 36.2998C87.1813 33.6696 87.4939 31.5628 87.4939 30.9831C87.4939 30.6673 87.3911 30.5072 87.1299 30.5072C86.5046 30.5072 86.6588 32.19 85.6696 35.2442C84.4705 38.8219 82.4406 40.7686 80.4622 40.7686C78.8477 40.7729 77.6486 39.5616 77.6486 37.4029ZM68.7412 32.7741C73.2206 26.0384 75.4603 19.3028 75.4603 12.9868C75.4603 9.04142 74.3683 6.98655 72.6468 6.98655C71.5547 6.98655 70.6169 7.98587 69.8332 9.93258C68.2701 13.9861 66.6043 21.8768 66.6043 31.4546C66.6043 37.8745 68.2188 41.0844 71.4477 41.0844C73.5846 41.0844 75.1991 39.0858 76.3981 35.0323C77.0234 32.9255 77.1262 31.5584 77.1262 31.4546C77.1262 31.1907 76.972 30.9788 76.8135 30.9788C76.2911 30.9788 76.3981 31.8223 75.9785 33.4013C74.9378 37.6625 73.6874 39.7693 72.0215 39.7693C69.9403 39.7736 68.8954 37.4592 68.7412 32.7741ZM68.7412 31.2989C68.951 16.0409 70.9809 7.93396 72.4926 7.93396C73.5332 7.93396 74.0557 9.30098 74.0557 12.0913C74.0557 17.7757 72.2314 25.2511 68.7412 31.2989ZM57.4356 36.196C58.0095 30.0919 59.2043 26.9858 60.5618 26.9858C61.2384 26.9858 61.4997 27.4055 61.4997 28.3529C61.4997 30.0919 60.1978 33.3538 57.4356 36.196ZM57.4356 37.4029C61.1356 34.1411 62.9043 30.9831 62.9043 28.5648C62.9043 27.0377 62.1763 25.9346 60.9258 25.9346C58.2707 25.9346 55.1959 30.1957 55.1959 35.984C55.1959 39.6654 57.0203 41.7722 59.6754 41.7722C62.2277 41.7722 64.6258 39.7736 65.9791 36.2998C66.9683 33.6696 67.2809 31.5628 67.2809 30.9831C67.2809 30.6673 67.1781 30.5072 66.9169 30.5072C66.2917 30.5072 66.4458 32.19 65.4566 35.2442C64.2575 38.8219 62.2277 40.7686 60.2492 40.7686C58.6347 40.7729 57.4356 39.5616 57.4356 37.4029ZM24.0414 30.438C24.0414 40.496 29.7413 46.479 38.3704 46.479C43.4579 46.479 48.2713 43.6843 50.5966 39.2674C52.0355 36.5853 52.6436 33.9594 52.6436 32.3934C52.6436 32.004 52.4209 31.7791 52.1469 31.7791C51.4274 31.7791 51.8685 33.8469 50.708 36.6415C48.3826 42.3433 44.0703 45.4147 38.4817 45.4147C31.4543 45.4147 26.9192 40.4398 26.9192 32.004C26.9192 25.13 29.0775 18.1996 32.2851 13.7871C34.7731 10.3219 37.3169 8.64775 40.1947 8.64775C44.567 8.64775 47.6632 12.1129 47.6632 17.3647C47.6632 22.4521 44.567 26.4191 40.8585 26.4191C38.5888 26.4191 36.9315 24.52 36.9315 21.3879C36.9315 16.9148 39.6422 15.4093 39.6422 14.6826C39.6422 14.5139 39.5309 14.4014 39.3082 14.4014C38.5331 14.4014 35.7667 17.421 35.7667 21.2192C35.7667 25.0737 37.8137 27.3665 41.0212 27.3665C45.3378 27.3665 49.0421 23.1183 49.0421 17.421C49.0421 11.888 45.0595 7.58355 39.9163 7.58355C36.4304 7.58355 32.7775 9.70763 29.7927 13.6746C26.0884 18.5933 24.0414 24.6844 24.0414 30.438Z" fill="black"/>
<path d="M152.732 34.565C152.886 33.0379 152.942 31.9867 152.942 31.2513C152.942 28.7768 152.265 27.1978 151.743 27.1978C151.43 27.1978 151.327 27.4617 151.276 28.0414L150.338 39.5659V39.9336C150.338 40.6691 150.548 41.093 151.43 41.093C151.897 41.093 152.21 40.8291 152.265 40.5133L152.629 38.3546C153.567 32.5664 155.494 28.9369 156.642 28.9369C157.113 28.9369 157.426 29.3565 157.426 30.252C157.426 32.7784 156.698 35.0409 156.698 37.0914C156.698 39.4578 157.533 40.6691 159.353 40.6691C161.177 40.6691 162.791 39.142 163.991 36.0921C164.877 33.9334 165.241 31.9348 165.241 30.6197C165.241 30.3039 165.138 30.2001 164.98 30.2001C164.406 30.2001 164.509 31.0955 164.093 32.9341C163.053 37.3034 161.49 39.5659 159.927 39.5659C159.04 39.5659 158.573 38.9862 158.573 37.935C158.573 35.9364 159.301 33.622 159.301 31.1994C159.301 28.9369 158.466 27.7256 157.216 27.7256C155.126 27.7212 154.034 29.9318 152.732 34.565ZM146.116 34.565H145.752C143.825 34.565 142.784 33.4619 142.784 31.407C142.784 29.4084 143.722 28.037 144.711 28.037C145.803 28.037 146.274 29.456 146.274 32.2982C146.27 32.986 146.219 33.7214 146.116 34.565ZM146.741 35.4043C150.128 34.405 152.158 30.9312 152.158 30.2996C152.158 30.1395 152.055 29.9318 151.897 29.9318C151.113 29.9318 150.18 33.3537 146.895 34.5088C146.998 33.5095 147.105 32.6659 147.105 32.0343C147.105 28.8763 146.167 27.1935 144.763 27.1935C143.358 27.1935 142 28.9844 142 31.5628C142 33.9853 143.405 35.4043 145.957 35.4562C145.435 38.7699 144.394 40.3489 142.831 40.3489C141.371 40.3489 140.801 39.0857 140.801 36.2954C140.801 33.5614 141.375 30.9787 142.206 29.1402C142.934 27.6131 143.82 26.9296 143.82 26.458C143.82 26.1941 143.718 26.0903 143.456 26.0903C143.247 26.0903 142.103 27.0377 141.007 28.8806C139.444 31.5108 138.716 34.0372 138.716 36.5637C138.716 39.8774 140.227 41.8241 142.309 41.8241C144.553 41.8241 146.064 39.6654 146.741 35.4043ZM134.605 23.512C135.384 23.512 135.906 22.9842 135.906 22.4089C135.906 21.6172 135.435 21.1976 134.605 21.1976C133.821 21.1976 133.303 21.6734 133.303 22.3569C133.303 23.0405 133.77 23.512 134.605 23.512ZM135.645 40.297C137.572 40.297 138.981 38.9819 139.97 36.4036C140.699 34.5607 141.118 32.0862 141.118 31.0869C141.118 30.7711 140.964 30.611 140.754 30.611C140.283 30.611 140.339 31.4546 140.026 33.0855C139.191 37.3467 137.838 39.5054 135.911 39.5054C134.763 39.5054 134.194 38.6618 134.194 36.979C134.194 33.0855 135.08 29.9794 135.08 27.877C135.08 27.1935 134.767 26.9296 133.988 26.9296C133.363 26.9296 133.153 26.9815 132.947 27.5093C132.896 27.6131 132.373 30.4034 132.373 35.1404C132.365 38.6142 133.354 40.297 135.645 40.297ZM124.708 19.0389C123.98 24.9309 123.56 29.9838 123.56 34.2449C123.56 38.7699 124.811 41.0325 127.102 41.0325C129.187 41.0325 130.853 38.8738 132.258 34.4569C133.093 31.8266 133.508 30.2996 133.508 29.7199C133.508 29.456 133.35 29.3002 133.144 29.3002C132.57 29.3002 132.57 30.5634 131.581 33.7214C130.331 37.8269 129.029 39.8774 127.676 39.8774C125.958 39.8774 125.59 37.8269 125.59 33.5095C125.59 29.3522 125.954 24.5113 126.738 18.987H133.56C134.236 18.987 134.498 18.8269 134.498 18.4592C134.498 18.1953 134.236 17.9833 133.611 17.9833H126.841C127.102 15.617 127.414 14.1937 127.414 13.614C127.414 12.8786 127.205 12.4547 126.686 12.4547C125.59 12.4547 125.333 14.2975 124.759 18.0309L117.518 17.979C116.79 17.979 116.426 18.1347 116.426 18.5587C116.426 18.9826 116.79 19.1903 117.518 19.1903L124.708 19.0389ZM116.631 32.2463C116.216 37.8225 114.858 40.6128 113.038 40.6128C112.049 40.6128 111.424 39.6654 111.424 37.9826C111.424 31.5628 113.976 26.7219 116.374 26.7219C117.415 26.7219 117.989 27.2497 117.989 28.0889C117.989 30.5115 115.175 32.0343 115.175 32.7178C115.175 32.9298 115.278 33.0336 115.539 33.0336C115.749 33.0379 116.165 32.826 116.631 32.2463ZM116.267 38.1946C116.477 40.0375 117.466 41.0368 118.922 41.0368C120.588 41.0368 121.997 39.5616 123.038 36.6156C124.186 33.2456 124.442 30.9312 124.442 30.7754C124.442 30.5115 124.288 30.3039 124.078 30.3039C123.556 30.3039 123.607 31.3551 123.141 33.3018C122.1 37.723 120.798 39.9336 119.389 39.9336C118.503 39.9336 118.297 39.302 118.297 37.8831C118.297 35.201 118.82 32.9903 118.82 31.4113C118.82 30.6197 118.717 30.1481 118.194 29.9924C118.61 29.3608 118.82 28.7811 118.82 28.0976C118.82 26.7825 117.882 25.9389 116.37 25.9389C112.983 25.9389 109.39 30.8317 109.39 36.7237C109.39 39.8298 110.743 41.6165 112.777 41.6165C114.34 41.6165 115.694 40.3533 116.267 38.1946ZM101.789 29.1964C101.266 28.7768 101.009 28.037 101.009 26.9858C101.009 25.9346 101.27 25.4068 101.789 25.4068C102.153 25.4068 102.362 25.7745 102.362 26.5099C102.362 27.3535 102.204 28.249 101.789 29.1964ZM102.362 29.5641C102.885 28.5129 103.142 27.3535 103.142 26.1941C103.142 25.1429 102.517 24.4594 101.84 24.4594C100.851 24.4594 100.067 25.7745 100.067 27.7731C100.067 29.456 100.692 30.2996 102.204 31.1431C102.983 31.619 103.454 31.8266 103.454 32.4582C103.454 34.0372 102.675 36.3517 102.675 38.93C102.675 41.1925 103.664 42.4557 105.176 42.4557C106.79 42.4557 108.512 40.8767 109.917 37.7187C111.167 34.9284 111.531 32.3501 111.531 31.6147C111.531 31.247 111.428 31.035 111.218 31.035C110.645 31.035 110.803 32.0862 110.122 34.3487C108.717 39.1376 106.996 41.4521 105.381 41.4521C104.859 41.4521 104.495 41.0844 104.495 40.4009C104.495 37.7187 105.587 34.8246 105.587 32.6659C105.591 31.0393 104.653 30.5115 102.362 29.5641ZM87.0699 36.2608C87.0699 40.2062 89.4424 41.8241 92.5642 41.8241C97.0436 41.8241 100.846 36.7713 100.846 31.3508C100.846 30.9312 100.744 30.7192 100.482 30.7192C99.8572 30.7192 100.067 31.9305 99.3904 34.5088C98.3498 38.4022 95.2664 40.9632 92.56 40.9632C90.1618 40.9632 87.8065 40.5696 87.8065 37.6754" fill="black"/>
<path d="M162.522 48.5901C165.387 51.2376 164.517 54.3048 164.243 57.9516L164.008 57.545C164.128 56.2947 163.515 52.0985 160.145 50.606" fill="#F6B248"/>
<path d="M160.145 50.6017L162.526 50.4416L162.522 48.5901" fill="#F6B248"/>
<path d="M175.905 63.2391L152.193 63.2979L152.236 80.8227L175.947 80.7639L175.905 63.2391Z" fill="#916DB0"/>
<path d="M175.906 63.2393L152.194 63.2977L152.201 65.9971L175.912 65.9387L175.906 63.2393Z" fill="#78479C"/>
<path d="M176.685 58.0024L151.389 58.0656L151.404 64.2475L176.7 64.1843L176.685 58.0024Z" fill="#916DB0"/>
<path d="M161.404 55.2998C161.854 55.5939 164.701 58.4361 164.701 58.4361C164.701 58.4361 160.8 57.2292 160.35 56.9393C159.905 56.6451 159.777 56.0438 160.064 55.5896C160.359 55.1397 160.959 55.0099 161.404 55.2998ZM164.753 58.4924C164.753 58.4924 161.832 53.2665 160.56 52.4359C159.288 51.601 157.584 51.9687 156.758 53.2535C155.931 54.5384 156.295 56.2558 157.567 57.0907C158.839 57.9213 164.753 58.4924 164.753 58.4924Z" fill="#F6B248"/>
<path d="M168.47 57.0345C167.986 57.2594 164.076 58.1506 164.076 58.1506C164.076 58.1506 167.185 55.4771 167.669 55.2565C168.153 55.0359 168.727 55.2522 168.95 55.741C169.172 56.2342 168.958 56.8095 168.47 57.0345ZM172.684 54.1793C172.054 52.7863 170.427 52.1677 169.048 52.8036C167.669 53.4395 164.008 58.1636 164.008 58.1636C164.008 58.1636 169.939 58.488 171.318 57.8564C172.701 57.2248 173.313 55.5766 172.684 54.1793Z" fill="#F6B248"/>
<path d="M168.804 45.5143C164.265 48.4733 164.714 52.7733 164.26 57.8348L164.646 57.5839C164.766 55.8405 166.637 50.0912 171.6 48.828" fill="#F6B248"/>
<path d="M166.066 57.9771L162.011 57.987L162.066 80.7982L166.121 80.7883L166.066 57.9771Z" fill="#F6B248"/>
<path d="M179.369 80.7715L179.972 79.0194H179.981C179.968 79.1925 179.964 79.3482 179.964 79.4953V80.7715H180.169V78.7901H179.861L179.296 80.4254H179.287L178.731 78.7901H178.422V80.7715H178.611V79.5126C178.611 79.3222 178.606 79.1578 178.594 79.0151H178.602L179.202 80.7715H179.369ZM177.6 78.9935H178.157V78.7901H176.838V78.9935H177.394V80.7715H177.6V78.9935Z" fill="black"/>
<path d="M33.2615 50.3854C33.1415 49.5288 33.0816 48.7761 33.0816 48.1272C33.0816 46.7342 33.2443 45.6311 33.5655 44.8221C33.8867 44.0131 34.3149 43.6108 34.8502 43.6108C35.1457 43.6108 35.3898 43.7665 35.5825 44.0867C35.7752 44.4025 35.8737 44.8134 35.8737 45.3153C35.8737 46.2064 35.6939 47.3744 35.3341 48.815C34.9744 50.2556 34.4734 51.8303 33.831 53.539C33.5655 52.2931 33.3771 51.2419 33.2615 50.3854ZM33.9895 63.4587C35.0729 66.9325 35.7924 69.4329 36.1435 70.9557C35.5911 72.5174 35.1586 73.9623 34.8459 75.2904C34.5333 76.6185 34.3749 77.7 34.3749 78.5392C34.3749 79.1362 34.5119 79.6164 34.7903 79.9884C35.0644 80.3605 35.4069 80.5465 35.8095 80.5465C36.5289 80.5465 37.1113 79.9668 37.561 78.8031C38.0106 77.6437 38.2376 76.0691 38.2376 74.0791C38.2376 73.5773 38.2162 72.9543 38.1691 72.2102C38.122 71.4661 38.0535 70.5101 37.9635 69.3377C40.4302 63.3548 42.914 58.1636 45.4149 53.7683C47.9159 49.3731 50.3269 45.9685 52.6436 43.5502C50.6181 47.4912 49.0978 51.5404 48.0743 55.7064C47.0551 59.868 46.5412 64.0989 46.5412 68.3903C46.5412 72.924 47.2007 76.9472 48.5154 80.46C49.8301 83.9727 51.0591 85.7291 52.1983 85.7291C52.2711 85.7291 52.3439 85.6988 52.4209 85.6296C52.4938 85.5647 52.5323 85.4868 52.5323 85.3917C52.5323 85.2446 52.2882 84.7601 51.8 83.9424C51.3118 83.1248 50.9135 82.3548 50.6009 81.628C49.9372 80.0317 49.4575 78.2537 49.1535 76.3027C48.8494 74.3516 48.6995 72.0934 48.6995 69.5281C48.6995 65.3275 49.0764 61.1529 49.8301 56.9956C50.5838 52.8426 51.6159 49.1957 52.922 46.055C53.3245 45.0903 53.8127 44.1126 54.3866 43.1263C54.9561 42.1399 55.2431 41.5949 55.2431 41.4824C55.2431 41.2791 55.1788 41.1103 55.0503 40.9806C54.9219 40.8508 54.7634 40.7859 54.5793 40.7859C53.3288 40.7859 51.0163 43.3209 47.6375 48.3954C44.263 53.4698 40.9013 59.7685 37.5524 67.2958C37.3126 65.8293 36.6703 63.3289 35.6211 59.7988C35.0515 57.8305 34.619 56.312 34.3235 55.2565C35.2613 52.7863 35.9508 50.7531 36.3919 49.1654C36.833 47.5778 37.0557 46.3275 37.0557 45.4148C37.0557 44.4847 36.8801 43.7882 36.5332 43.3253C36.1821 42.8624 35.6596 42.6288 34.9616 42.6288C33.8738 42.6288 32.966 43.3253 32.2294 44.7183C31.4928 46.1112 31.1245 47.9065 31.1245 50.0998C31.1245 51.0689 31.2059 52.1547 31.3729 53.3617C31.5399 54.5686 31.7969 55.9184 32.148 57.4022C28.3752 65.7471 24.8765 71.7257 21.6476 75.3423C18.4186 78.9588 15.0184 80.7628 11.4512 80.7628C9.24571 80.7628 7.43854 80.0057 6.04247 78.4916C4.64641 76.9775 3.94409 75.0135 3.94409 72.5952C3.94409 70.0126 4.73206 67.8236 6.3037 66.0283C7.87534 64.2373 9.77673 63.3375 12.0036 63.3375C12.8686 63.3375 13.7337 63.45 14.5987 63.6706C14.8 63.7269 14.9199 63.7528 14.9584 63.7528C15.104 63.7355 15.2154 63.6923 15.2882 63.6274C15.361 63.5625 15.3995 63.463 15.3995 63.3332C15.3995 63.0909 15.1169 62.8833 14.5559 62.7059C13.9949 62.5286 13.284 62.442 12.419 62.442C9.69537 62.442 7.42569 63.4154 5.60139 65.3535C3.78136 67.2959 2.86921 69.7271 2.86921 72.6428C2.86921 75.5629 3.75995 77.9076 5.54571 79.6813C7.33148 81.455 9.69537 82.3418 12.6374 82.3418C16.3331 82.3418 19.7976 80.4643 23.0265 76.7093C26.2554 72.9543 29.463 67.0709 32.6448 59.0634C32.9531 60.106 33.4028 61.5638 33.9895 63.4587ZM36.863 73.72C37.0642 74.6674 37.167 75.3466 37.167 75.7533C37.167 76.7958 37.0428 77.661 36.7944 78.3619C36.5461 79.0583 36.2549 79.4088 35.9251 79.4088C35.7795 79.4088 35.6553 79.3049 35.5525 79.1016C35.4498 78.8983 35.4027 78.6387 35.4027 78.3229C35.4027 77.6351 35.514 76.8088 35.7324 75.8398C35.9508 74.8751 36.2549 73.8411 36.6446 72.7467C36.6959 72.9673 36.7687 73.2917 36.863 73.72Z" fill="black"/>
<path d="M143.041 80.3605C143.611 80.0793 143.897 79.8543 143.897 79.677C143.88 79.5731 143.842 79.4953 143.782 79.439C143.722 79.3828 143.632 79.3612 143.508 79.3612C143.405 79.3612 143.217 79.4174 142.951 79.5299C142.681 79.6423 142.356 79.7981 141.975 79.9884C142.06 76.9602 142.634 73.9969 143.692 71.0898C143.897 70.5101 144.005 70.1727 144.005 70.0645C144.005 69.978 143.966 69.8915 143.889 69.8136C143.812 69.7357 143.705 69.6881 143.563 69.6708C143.392 69.6708 143.131 69.9174 142.784 70.4063C142.716 70.5101 142.664 70.5923 142.63 70.6442C142.767 70.19 142.865 69.8309 142.917 69.567C142.968 69.3031 142.994 69.0695 142.994 68.8575C142.994 67.9318 142.767 67.218 142.317 66.7205C141.868 66.223 141.217 65.9721 140.369 65.9721C139.589 65.9721 138.797 66.2403 137.992 66.7724C137.187 67.3088 136.437 68.0615 135.744 69.0436C134.772 70.4452 134.022 71.8771 133.483 73.348C132.947 74.8188 132.678 76.1902 132.678 77.4707C132.678 78.7642 132.973 79.8067 133.56 80.5941C134.151 81.3814 134.913 81.7751 135.847 81.7751C136.694 81.7751 137.508 81.4247 138.287 80.7239C139.067 80.023 139.744 79.0367 140.313 77.7562C140.296 77.8773 140.262 78.2191 140.21 78.7815C140.159 79.3395 140.09 80.1182 140.005 81.1175C137.804 82.7268 136.112 84.4356 134.926 86.2352C133.74 88.0392 133.144 89.8129 133.144 91.5649C133.144 92.7027 133.44 93.6111 134.026 94.2946C134.613 94.9781 135.401 95.3199 136.39 95.3199C138.21 95.3199 139.576 94.1562 140.497 91.8288C141.414 89.5014 141.928 85.8632 142.03 80.9099C142.287 80.7541 142.626 80.5724 143.041 80.3605ZM138.634 78.9199C137.778 80.1788 136.943 80.8104 136.125 80.8104C135.624 80.8104 135.23 80.5984 134.943 80.1788C134.656 79.7591 134.515 79.1795 134.515 78.4484C134.515 77.488 134.729 76.294 135.153 74.8794C135.577 73.4604 136.146 72.0718 136.853 70.7048C137.564 69.3594 138.21 68.386 138.789 67.789C139.367 67.192 139.953 66.8978 140.544 66.8978C141.011 66.8978 141.384 67.0622 141.662 67.3824C141.94 67.7068 142.077 68.1481 142.077 68.7061C142.077 69.5973 141.855 70.536 141.414 71.5137C140.973 72.4957 140.75 72.9932 140.75 73.0105C140.75 73.1144 140.776 73.2009 140.827 73.2614C140.878 73.322 140.973 73.3869 141.114 73.4604C140.322 75.8398 139.491 77.6567 138.634 78.9199ZM139.011 92.0062C138.51 93.7106 137.684 94.5672 136.54 94.5672C135.829 94.5672 135.256 94.299 134.81 93.7669C134.369 93.2348 134.146 92.521 134.146 91.6298C134.146 90.0551 134.66 88.4242 135.692 86.7327C136.724 85.0456 138.155 83.4925 139.992 82.0736C139.842 86.988 139.517 90.2974 139.011 92.0062ZM123.188 72.8548C123.222 72.2967 123.239 71.7949 123.239 71.358C123.239 70.2202 123.115 69.2469 122.862 68.4293C122.61 67.616 122.331 67.2093 122.019 67.2093C121.882 67.2093 121.775 67.2699 121.706 67.391C121.637 67.5121 121.586 67.7328 121.552 68.0486L120.588 79.8327V80.2264C120.588 80.6633 120.674 80.9704 120.85 81.1435C121.021 81.3165 121.308 81.4074 121.706 81.4074C121.933 81.4074 122.121 81.3511 122.28 81.2387C122.434 81.1262 122.533 80.9791 122.567 80.806L122.931 78.5998C123.363 75.922 123.993 73.6508 124.815 71.7863C125.637 69.9217 126.378 68.9916 127.038 68.9916C127.282 68.9916 127.47 69.1041 127.607 69.3334C127.744 69.5627 127.813 69.8915 127.813 70.3327C127.813 71.2239 127.693 72.4438 127.449 73.9925C127.205 75.5413 127.085 76.6487 127.085 77.3149C127.085 78.5392 127.307 79.4563 127.748 80.0576C128.19 80.6633 128.87 80.9618 129.787 80.9618C130.738 80.9618 131.62 80.5681 132.425 79.7808C133.23 78.9934 133.937 77.8297 134.545 76.2897C134.943 75.312 135.256 74.3256 135.478 73.335C135.701 72.3443 135.817 71.4661 135.817 70.6961C135.799 70.5404 135.774 70.4279 135.739 70.3673C135.705 70.3068 135.637 70.2765 135.53 70.2765C135.268 70.2765 135.063 70.7221 134.904 71.6175C134.819 72.1929 134.733 72.6774 134.643 73.0624C134.125 75.2168 133.491 76.8823 132.746 78.0633C132.001 79.2444 131.213 79.837 130.382 79.837C129.933 79.837 129.59 79.6986 129.354 79.4174C129.119 79.1362 129.003 78.7252 129.003 78.1845C129.003 77.5356 129.123 76.4454 129.367 74.9053C129.611 73.3653 129.731 72.167 129.731 71.3104C129.731 70.19 129.547 69.3161 129.175 68.6845C128.802 68.0529 128.28 67.7414 127.603 67.7414C126.648 67.7414 125.834 68.2432 125.162 69.2512C124.485 70.2592 123.774 72.0891 123.029 74.7496C123.102 74.0445 123.153 73.4172 123.188 72.8548ZM118.991 79.6121C119.728 78.9545 120.344 77.9552 120.85 76.6055C121.179 75.7835 121.458 74.8275 121.68 73.746C121.903 72.6601 122.019 71.8122 122.019 71.1979C122.019 71.0422 121.989 70.9167 121.929 70.8302C121.869 70.7437 121.779 70.7004 121.655 70.7004C121.428 70.7004 121.248 71.146 121.111 72.0415C121.042 72.513 120.974 72.9154 120.905 73.2485C120.49 75.4374 119.929 77.0727 119.231 78.1585C118.533 79.2444 117.693 79.7851 116.721 79.7851C116.13 79.7851 115.689 79.5688 115.398 79.1405C115.103 78.7122 114.957 78.0677 114.957 77.2111C114.957 75.723 115.107 73.945 115.411 71.8685C115.715 69.7963 115.865 68.4768 115.865 67.9188C115.865 67.5684 115.779 67.3175 115.604 67.1704C115.432 67.0233 115.145 66.9454 114.747 66.9454C114.383 66.9454 114.135 66.9844 114.006 67.0622C113.878 67.1401 113.766 67.2958 113.681 67.5208C113.578 67.7328 113.45 68.6283 113.304 70.2116C113.158 71.7949 113.081 73.4994 113.081 75.3163C113.081 77.1376 113.355 78.47 113.899 79.3179C114.443 80.1658 115.291 80.5897 116.434 80.5897C117.402 80.5984 118.254 80.2696 118.991 79.6121ZM116.327 63.1299C116.589 62.9136 116.717 62.6453 116.717 62.3295C116.717 61.9272 116.601 61.6201 116.366 61.4124C116.13 61.2005 115.801 61.0966 115.364 61.0966C114.983 61.0966 114.666 61.2005 114.417 61.4124C114.165 61.6244 114.04 61.9099 114.04 62.2776C114.04 62.628 114.16 62.9136 114.405 63.1299C114.649 63.3505 114.966 63.4586 115.364 63.4586C115.745 63.4586 116.066 63.3462 116.327 63.1299ZM104.388 67.5121C104.187 70.0602 104.088 72.3573 104.088 74.4035C104.088 76.6963 104.397 78.4267 105.009 79.5991C105.626 80.7714 106.529 81.3598 107.724 81.3598C108.782 81.3598 109.741 80.8104 110.61 79.7072C111.475 78.6041 112.272 76.9169 113 74.6414C113.432 73.2225 113.754 72.128 113.963 71.358C114.173 70.5879 114.276 70.0645 114.276 69.7833C114.259 69.6449 114.216 69.5367 114.148 69.4675C114.079 69.3983 113.993 69.3637 113.886 69.3637C113.642 69.3637 113.377 69.952 113.081 71.1244C112.803 72.1929 112.546 73.11 112.302 73.8801C111.659 75.9782 111.009 77.5529 110.341 78.6041C109.672 79.6553 108.992 80.1788 108.302 80.1788C107.523 80.1788 106.975 79.7159 106.653 78.7858C106.332 77.86 106.174 76.1512 106.174 73.6681C106.174 71.4791 106.272 69.1474 106.473 66.6729C106.675 64.1984 106.962 61.5855 107.343 58.8384H114.332C114.679 58.8211 114.927 58.7692 115.073 58.6827C115.218 58.5962 115.295 58.4621 115.295 58.289C115.295 58.1333 115.214 58.0122 115.047 57.9343C114.88 57.8564 114.661 57.8175 114.383 57.8175H107.471C107.557 56.9955 107.677 56.0871 107.822 55.1007C107.968 54.1101 108.045 53.5304 108.045 53.353C108.045 52.9507 107.985 52.6522 107.861 52.4619C107.741 52.2715 107.548 52.172 107.287 52.172C106.559 52.172 105.917 53.9933 105.364 57.6315L105.339 57.8434L97.9344 57.8175C97.5361 57.8175 97.2492 57.8607 97.0779 57.9473C96.9066 58.0338 96.8167 58.1852 96.8167 58.3928C96.8167 58.6048 96.9066 58.7649 97.0907 58.8774C97.2749 58.9898 97.5532 59.0461 97.9344 59.0461L105.287 58.8903C104.885 62.0916 104.585 64.9684 104.388 67.5121ZM99.0735 72.9197C100.041 71.3537 100.53 69.9131 100.53 68.6023C100.53 67.8323 100.35 67.2266 99.9985 66.7897C99.6473 66.3528 99.1463 66.1321 98.5039 66.1321C97.0137 66.1321 95.669 67.1271 94.4656 69.1128C93.2623 71.0984 92.6584 73.4561 92.6584 76.1858C92.6584 78.0071 93.0696 79.4433 93.8918 80.5032C94.714 81.5631 95.8274 82.0909 97.2321 82.0909C98.5468 82.0909 99.7801 81.5977 100.923 80.6071C102.067 79.6164 102.983 78.2494 103.677 76.4973C104.075 75.4461 104.397 74.4035 104.636 73.3609C104.88 72.3184 105 71.5527 105 71.0638C105 70.9081 104.97 70.7869 104.91 70.7091C104.85 70.6312 104.748 70.5923 104.611 70.5923C104.384 70.5923 104.157 71.1763 103.921 72.34C103.686 73.5037 103.424 74.5333 103.129 75.4245C102.538 77.1938 101.767 78.5738 100.816 79.5731C99.8615 80.5724 98.8594 81.0699 97.8016 81.0699C96.9366 81.0699 96.2428 80.7585 95.7246 80.1398C95.2065 79.5169 94.9453 78.682 94.9453 77.6307C96.7267 76.0561 98.1014 74.4857 99.0735 72.9197ZM96.2 69.4675C96.761 67.8236 97.4076 67.0017 98.1356 67.0017C98.4654 67.0017 98.7009 67.1098 98.8508 67.3304C98.9964 67.5511 99.0692 67.9015 99.0692 68.3947C99.0692 69.4459 98.6881 70.7221 97.9258 72.2275C97.1635 73.733 96.1657 75.126 94.9367 76.4021C95.2193 73.4258 95.639 71.1157 96.2 69.4675ZM82.8046 74.5333C83.0487 74.8837 83.2714 75.3812 83.4812 76.0301C83.5155 76.1166 83.5669 76.268 83.6354 76.4757C84.6418 79.6077 85.9565 81.1738 87.5838 81.1738C88.7443 81.1738 89.7935 80.7109 90.7271 79.7808C91.6606 78.855 92.4957 77.4534 93.2237 75.5802C93.6049 74.6198 93.9132 73.6075 94.1444 72.5476C94.38 71.4878 94.4956 70.7134 94.4956 70.2246C94.4956 70.0688 94.4571 69.9434 94.38 69.8568C94.3029 69.7703 94.2044 69.7271 94.0802 69.7271C93.8532 69.7271 93.6477 70.2159 93.455 71.1979C93.3693 71.6695 93.288 72.0631 93.2194 72.3789C92.6456 74.7929 91.969 76.6141 91.181 77.8384C90.393 79.0627 89.5152 79.677 88.543 79.677C87.5196 79.677 86.5089 78.4094 85.5025 75.87C85.2584 75.2731 85.07 74.8015 84.9287 74.4511C86.419 73.7676 87.5624 72.9413 88.3589 71.9723C89.1554 70.9989 89.5537 69.965 89.5537 68.8619C89.5537 68.0745 89.3524 67.4213 88.9542 66.9065C88.5559 66.3917 88.0463 66.1321 87.4211 66.1321C86.6245 66.1321 85.8023 66.5474 84.9544 67.378C84.1065 68.2086 83.22 69.4632 82.3036 71.146L82.6419 68.3903C84.8259 65.5222 86.5389 62.5978 87.7851 59.6214C89.0312 56.6451 89.6565 54.0322 89.6565 51.774C89.6565 50.4632 89.4209 49.4077 88.9542 48.6117C88.4874 47.8157 87.8707 47.4177 87.1084 47.4177C85.8451 47.4177 84.7146 48.59 83.7168 50.9348C82.719 53.2795 81.9867 56.5543 81.5199 60.7505C81.0017 65.1934 80.4579 69.5757 79.8969 73.8887C79.3316 78.2018 79.0532 80.4037 79.0532 80.4902C79.0532 80.7368 79.1132 80.9229 79.2331 81.0526C79.353 81.1824 79.5457 81.2516 79.8027 81.2516C80.2523 81.2516 80.6334 80.7714 80.9461 79.8067C81.2587 78.8464 81.6227 76.8823 82.0381 73.9277C82.3121 73.9839 82.5648 74.1829 82.8046 74.5333ZM84.5476 69.0349C85.2413 68.1697 85.8794 67.7371 86.4704 67.7371C86.8001 67.7371 87.0699 67.8582 87.2755 68.1048C87.4853 68.3514 87.5881 68.6672 87.5881 69.0479C87.5881 69.8006 87.3097 70.6053 86.7573 71.4618C86.2006 72.3184 85.4511 73.0711 84.4962 73.72C84.3077 73.4388 84.0808 73.2355 83.8196 73.1014C83.5583 72.9673 83.2543 72.9024 82.9117 72.9024C82.7361 72.9024 82.6076 72.9067 82.522 72.9154C82.4363 72.924 82.355 72.937 82.2864 72.9543C83.1001 71.2109 83.8538 69.9001 84.5476 69.0349ZM82.7789 66.7637C84.3035 54.4432 85.7338 48.2829 87.0656 48.2829C87.4125 48.2829 87.6652 48.4949 87.8322 48.9145C87.9949 49.3341 88.0805 50.0003 88.0805 50.9088C88.0805 53.7078 87.6138 56.5283 86.6759 59.3619C85.7424 62.1954 84.4319 64.7694 82.7532 67.0795L82.7789 66.7637ZM72.3213 67.9577C72.4498 67.3737 72.5183 66.781 72.5183 66.184C72.5183 65.6779 72.3941 65.2583 72.1414 64.9252C71.8888 64.5921 71.5719 64.4277 71.1907 64.4277C70.6726 64.4277 70.2443 64.7435 69.906 65.3708C69.5677 65.998 69.4007 66.8156 69.4007 67.8106C69.4007 68.6153 69.5591 69.2772 69.8803 69.792C70.2015 70.3068 70.7668 70.7956 71.5804 71.2498C71.6147 71.2671 71.6918 71.3104 71.816 71.3796C72.5097 71.7992 72.8566 72.2016 72.8566 72.5866C72.8566 73.0408 72.7238 74.0185 72.454 75.5153C72.1843 77.0121 72.0515 78.2407 72.0515 79.2011C72.0515 80.3215 72.2827 81.1997 72.741 81.84C73.1992 82.4802 73.8201 82.796 74.5995 82.796C75.4646 82.796 76.3168 82.3764 77.1604 81.5372C77.9998 80.6979 78.7663 79.5082 79.4601 77.9682C79.944 76.8477 80.338 75.6883 80.642 74.49C80.9461 73.2917 81.0959 72.3703 81.0959 71.7214C81.0959 71.531 81.0702 71.3839 81.0189 71.2888C80.9675 71.1936 80.8904 71.146 80.7833 71.146C80.5392 71.146 80.3422 71.5483 80.1881 72.353C80.0168 73.2095 79.8412 73.9363 79.6699 74.5333C78.9761 76.8607 78.2139 78.6517 77.3831 79.9019C76.5523 81.1521 75.6958 81.7794 74.8094 81.7794C74.531 81.7794 74.3169 81.6842 74.1584 81.4896C74.0043 81.2949 73.9229 81.0353 73.9229 80.7022C73.9229 79.7375 74.107 78.3532 74.4839 76.5406C74.8565 74.728 75.0406 73.4821 75.0406 72.7986C75.0406 72.0977 74.8436 71.544 74.4539 71.133C74.0642 70.7221 73.1606 70.2202 71.7389 69.6232C71.9958 69.0998 72.1928 68.5461 72.3213 67.9577ZM70.5398 68.3773C70.4028 68.001 70.33 67.5424 70.33 66.9973C70.33 66.4566 70.3985 66.0499 70.5398 65.7774C70.6768 65.5049 70.8781 65.3708 71.1393 65.3708C71.3278 65.3708 71.4777 65.4659 71.5804 65.6606C71.6832 65.8509 71.7346 66.1321 71.7346 66.4998C71.7346 66.9714 71.6832 67.4429 71.5804 67.9058C71.4777 68.3687 71.3278 68.8186 71.1393 69.2555C70.8781 69.0479 70.6811 68.7537 70.5398 68.3773ZM62.6944 80.5984C63.1612 81.1045 63.7779 81.3598 64.5402 81.3598C65.4052 81.3598 66.1889 80.9791 66.8912 80.2177C67.5935 79.4563 68.2145 78.3316 68.7498 76.8434C69.1652 75.6018 69.5077 74.3862 69.7775 73.1966C70.0473 72.0069 70.1801 71.2282 70.1801 70.8605C70.1801 70.7394 70.1458 70.6269 70.0773 70.5317C70.0088 70.4365 69.9231 70.389 69.8161 70.389C69.572 70.389 69.3664 70.8605 69.1909 71.8079C69.0709 72.4741 68.9553 73.0235 68.8525 73.4604C68.3344 75.6667 67.7477 77.3452 67.0968 78.5003C66.4458 79.6553 65.7606 80.2307 65.0326 80.2307C64.6172 80.2307 64.3218 80.0836 64.1505 79.7851C63.9792 79.4866 63.8892 78.9372 63.8892 78.1326C63.8892 77.1159 63.9792 75.87 64.1633 74.3905C64.3474 72.911 64.4374 71.955 64.4374 71.5181C64.4374 71.0465 64.3903 70.7048 64.2961 70.4928C64.2018 70.2808 64.0391 70.1337 63.8164 70.0472C63.9877 69.766 64.1205 69.4805 64.2061 69.182C64.2918 68.8835 64.3346 68.5331 64.3346 68.1308C64.3346 67.4299 64.1205 66.8892 63.6965 66.5042C63.2726 66.1192 62.6859 65.9288 61.9407 65.9288C60.1207 65.9288 58.4763 67.0449 57.0031 69.2772C55.53 71.5094 54.7934 74.0661 54.7934 76.9559C54.7934 78.4959 55.106 79.7116 55.7312 80.6027C56.3565 81.4939 57.1958 81.9438 58.2536 81.9438C59.0672 81.9438 59.7953 81.6323 60.4376 81.0137C61.08 80.3908 61.5468 79.5385 61.8422 78.4527C61.9407 79.3741 62.2277 80.0923 62.6944 80.5984ZM60.9387 78.7079C60.3049 80.1788 59.504 80.9142 58.5362 80.9142C58.0181 80.9142 57.6112 80.6763 57.3157 80.2047C57.0202 79.7332 56.8746 79.0756 56.8746 78.2364C56.8746 75.1389 57.3885 72.4481 58.4206 70.164C59.4527 67.8799 60.626 66.7378 61.9407 66.7378C62.4589 66.7378 62.8615 66.8589 63.1484 67.1055C63.4353 67.3521 63.5766 67.6938 63.5766 68.1308C63.5766 69.0955 63.1013 70.0991 62.1463 71.1503C61.1913 72.2016 60.716 72.7683 60.716 72.8548C60.716 72.9759 60.7417 73.0624 60.7931 73.1057C60.8444 73.149 60.9387 73.1706 61.08 73.1706C61.217 73.1706 61.3883 73.1014 61.5853 72.9586C61.7823 72.8202 61.9878 72.6255 62.1977 72.3833C61.9921 75.1303 61.5724 77.2371 60.9387 78.7079Z" fill="black"/>
</svg>
